<svg width="412" height="412" viewBox="0 0 412 412" fill="none" xmlns="http://www.w3.org/2000/svg">
<g clip-path="url(#clip0_152_17)">
<mask id="mask0_152_17" style="mask-type:luminance" maskUnits="userSpaceOnUse" x="61" y="0" width="236" height="252">
<path d="M87.2634 120.989L159.104 79.51L296.817 0V4.55651C296.495 23.9555 291.829 100.191 239.336 130.495L189.537 159.246C154.728 178.754 155.263 207.872 190.465 228.482L195.098 231.157V251.935L159.111 231.157L88.1979 190.213C52.9962 169.602 52.4678 140.485 87.2763 120.976" fill="white"/>
</mask>
<g mask="url(#mask0_152_17)">
<path d="M296.809 0H52.4531V251.942H296.809V0Z" fill="url(#paint0_linear_152_17)"/>
</g>
<path fill-rule="evenodd" clip-rule="evenodd" d="M87.2646 120.989L159.105 79.51L296.819 0C282.904 45.7777 217.573 74.8697 190.595 91.1623C163.617 107.455 120.346 127.305 103.544 156.32C86.7684 185.302 119.85 208.491 119.927 208.549L88.1862 190.226C52.9845 169.615 52.4561 140.497 87.2646 120.989Z" fill="#8DE8ED"/>
<path fill-rule="evenodd" clip-rule="evenodd" d="M239.334 130.502L189.535 159.252C154.726 178.761 155.261 207.878 190.463 228.489L195.097 231.164V243.119C156.647 220.923 143.377 206.976 143.119 180.249C142.887 156.165 165.45 141.522 169.904 138.867L230.015 104.161C286.246 71.6988 296.809 0 296.809 0V4.55651C296.629 15.4354 295.082 44.1987 284.493 72.7107H284.487C276.198 95.0292 262.374 117.193 239.328 130.502H239.334Z" fill="#00A0D0"/>
<mask id="mask1_152_17" style="mask-type:luminance" maskUnits="userSpaceOnUse" x="115" y="159" width="236" height="253">
<path d="M325.21 290.512L253.37 331.991L115.656 411.501V406.944C115.979 387.545 120.645 311.309 173.138 281.006L222.937 252.255C257.746 232.747 257.211 203.629 222.009 183.018L217.375 180.344V159.566L253.363 180.344L324.282 221.288C359.484 241.898 360.012 271.016 325.204 290.525" fill="white"/>
</mask>
<g mask="url(#mask1_152_17)">
<path d="M360.019 159.551H115.656V411.492H360.019V159.551Z" fill="url(#paint1_linear_152_17)"/>
</g>
<path fill-rule="evenodd" clip-rule="evenodd" d="M325.21 290.511L253.37 331.99L115.656 411.5C129.571 365.722 194.902 336.63 221.88 320.338C248.858 304.045 292.129 284.195 308.931 255.18C325.706 226.198 292.625 203.009 292.548 202.951L324.289 221.274C359.49 241.885 360.019 271.002 325.21 290.511Z" fill="#8DE8ED"/>
<path fill-rule="evenodd" clip-rule="evenodd" d="M173.138 280.994L222.937 252.244C257.746 232.735 257.211 203.618 222.009 183.007L217.375 180.332V168.377C255.825 190.573 269.095 204.52 269.353 231.247C269.585 255.331 247.021 269.974 242.562 272.629L182.451 307.334C126.219 339.797 115.656 411.496 115.656 411.496V406.939C115.837 396.06 117.384 367.297 127.972 338.785H127.979C136.267 316.467 150.091 294.303 173.138 280.994Z" fill="#00A0D0"/>
</g>
<defs>
<linearGradient id="paint0_linear_152_17" x1="233.985" y1="158.614" x2="117.333" y2="94.462" gradientUnits="userSpaceOnUse">
<stop stop-color="#8DE8ED"/>
<stop offset="1" stop-color="#00A0D0"/>
</linearGradient>
<linearGradient id="paint1_linear_152_17" x1="178.493" y1="252.885" x2="295.145" y2="317.043" gradientUnits="userSpaceOnUse">
<stop stop-color="#8DE8ED"/>
<stop offset="1" stop-color="#48D1EC"/>
</linearGradient>
<clipPath id="clip0_152_17">
<rect width="290" height="412" fill="white" transform="translate(61)"/>
</clipPath>
</defs>
</svg>
