<svg width="290" height="412" viewBox="0 0 290 412" fill="none" xmlns="http://www.w3.org/2000/svg">
<mask id="mask0_956_6474" style="mask-type:luminance" maskUnits="userSpaceOnUse" x="0" y="0" width="236" height="252">
<path d="M26.2634 120.989L98.1041 79.51L235.817 0V4.55651C235.495 23.9555 230.829 100.191 178.336 130.495L128.537 159.246C93.728 178.754 94.2629 207.872 129.465 228.482L134.098 231.157V251.935L98.1105 231.157L27.1979 190.213C-8.00377 169.602 -8.53224 140.485 26.2763 120.976" fill="white"/>
</mask>
<g mask="url(#mask0_956_6474)">
<path d="M235.809 0H-8.54688V251.942H235.809V0Z" fill="url(#paint0_linear_956_6474)"/>
</g>
<path fill-rule="evenodd" clip-rule="evenodd" d="M26.2646 120.989L98.1053 79.51L235.819 0C221.904 45.7777 156.573 74.8697 129.595 91.1623C102.617 107.455 59.346 127.305 42.5443 156.32C25.7684 185.302 58.8497 208.491 58.9271 208.549L27.1862 190.226C-8.01549 169.615 -8.54395 140.497 26.2646 120.989Z" fill="#8DE8ED"/>
<path fill-rule="evenodd" clip-rule="evenodd" d="M178.334 130.502L128.535 159.252C93.7261 178.761 94.261 207.878 129.463 228.489L134.097 231.164V243.119C95.6467 220.923 82.3768 206.976 82.119 180.249C81.8869 156.165 104.45 141.522 108.904 138.867L169.015 104.161C225.246 71.6988 235.809 0 235.809 0V4.55651C235.629 15.4354 234.082 44.1987 223.493 72.7107H223.487C215.198 95.0292 201.374 117.193 178.328 130.502H178.334Z" fill="#00A0D0"/>
<mask id="mask1_956_6474" style="mask-type:luminance" maskUnits="userSpaceOnUse" x="54" y="159" width="236" height="253">
<path d="M264.21 290.513L192.37 331.992L54.6562 411.502V406.945C54.9785 387.546 59.6446 311.31 112.138 281.007L161.937 252.256C196.746 232.748 196.211 203.63 161.009 183.019L156.375 180.345V159.567L192.363 180.345L263.282 221.289C298.484 241.899 299.012 271.017 264.204 290.526" fill="white"/>
</mask>
<g mask="url(#mask1_956_6474)">
<path d="M299.019 159.552H54.6562V411.493H299.019V159.552Z" fill="url(#paint1_linear_956_6474)"/>
</g>
<path fill-rule="evenodd" clip-rule="evenodd" d="M264.21 290.512L192.37 331.991L54.6562 411.501C68.5707 365.723 133.902 336.631 160.88 320.339C187.858 304.046 231.129 284.196 247.931 255.181C264.706 226.199 231.625 203.01 231.548 202.952L263.289 221.275C298.49 241.886 299.019 271.003 264.21 290.512Z" fill="#8DE8ED"/>
<path fill-rule="evenodd" clip-rule="evenodd" d="M112.138 280.993L161.937 252.243C196.746 232.734 196.211 203.617 161.009 183.006L156.375 180.331V168.376C194.825 190.572 208.095 204.519 208.353 231.246C208.585 255.33 186.021 269.973 181.562 272.628L121.451 307.333C65.2194 339.796 54.6562 411.495 54.6562 411.495V406.938C54.8367 396.059 56.3835 367.296 66.9724 338.784H66.9788C75.2668 316.466 89.091 294.302 112.138 280.993Z" fill="#00A0D0"/>
<defs>
<linearGradient id="paint0_linear_956_6474" x1="172.985" y1="158.614" x2="56.3333" y2="94.462" gradientUnits="userSpaceOnUse">
<stop stop-color="#8DE8ED"/>
<stop offset="1" stop-color="#00A0D0"/>
</linearGradient>
<linearGradient id="paint1_linear_956_6474" x1="117.493" y1="252.886" x2="234.145" y2="317.044" gradientUnits="userSpaceOnUse">
<stop stop-color="#8DE8ED"/>
<stop offset="1" stop-color="#48D1EC"/>
</linearGradient>
</defs>
</svg>
